<svg width="184" height="49" viewBox="0 0 184 49" fill="none" xmlns="http://www.w3.org/2000/svg">
<g id="Group 4090">
<g id="Vector">
<path d="M173.696 8.87086C167.909 8.88448 163.447 13.0203 163.447 18.8458C163.422 20.1738 163.672 21.493 164.181 22.7232C164.69 23.9534 165.448 25.0689 166.409 26.0019C167.37 26.9349 168.514 27.6659 169.771 28.1505C171.029 28.635 172.373 28.8631 173.723 28.8207C175.552 28.8558 177.358 28.4018 178.946 27.5072C180.534 26.6125 181.846 25.3107 182.741 23.7405L178.779 21.9049C178.318 22.8276 177.595 23.5995 176.698 24.1279C175.801 24.6563 174.768 24.9188 173.723 24.8838C170.275 24.8838 168.057 22.6366 168.057 18.8594C168.057 14.0584 171.546 12.8349 173.709 12.8213C174.843 12.7772 175.961 13.0864 176.906 13.7049C177.85 14.3235 178.572 15.2197 178.968 16.2656H173.397L171.693 19.843H183.876C183.955 19.5077 183.987 19.1632 183.97 18.8193C183.958 12.9802 179.483 8.87086 173.696 8.87086Z" fill="#292929"/>
<path d="M156.118 9.42951H161.11L156.635 18.8452L161.11 28.2746H156.118L151.656 18.8452L156.118 9.42951Z" fill="#292929"/>
<path d="M145.832 9.42951H140.84L145.315 18.8452L140.84 28.2746H145.832L150.294 18.8452L145.832 9.42951Z" fill="#292929"/>
<path d="M128.267 8.87086C122.48 8.88448 118.018 13.0203 118.018 18.8458C117.993 20.1738 118.243 21.493 118.752 22.7232C119.261 23.9534 120.019 25.0689 120.98 26.0019C121.941 26.9349 123.085 27.6659 124.342 28.1505C125.6 28.635 126.944 28.8631 128.294 28.8207C130.123 28.8558 131.929 28.4018 133.517 27.5072C135.105 26.6125 136.417 25.3107 137.312 23.7405L133.35 21.9049C132.889 22.8276 132.166 23.5995 131.269 24.1279C130.372 24.6563 129.339 24.9188 128.294 24.8838C124.846 24.8838 122.628 22.6366 122.628 18.8594C122.628 14.0584 126.117 12.8349 128.28 12.8213C129.414 12.7772 130.532 13.0864 131.477 13.7049C132.421 14.3235 133.143 15.2197 133.539 16.2656H127.968L126.264 19.843H138.447C138.526 19.5077 138.558 19.1632 138.541 18.8193C138.542 12.9802 134.054 8.87086 128.267 8.87086Z" fill="#292929"/>
<path d="M67.6556 8.87134C66.5714 8.85876 65.4984 9.088 64.5172 9.54182C63.536 9.99565 62.6721 10.6623 61.9903 11.4916L57.502 9.42975V33.7575H61.9903V26.2803C62.6858 27.1056 63.5639 27.7636 64.5576 28.2038C65.5512 28.6441 66.6341 28.855 67.7233 28.8204C72.2794 28.8204 77.0255 25.2165 77.0116 18.8455C76.9985 12.8347 72.7125 8.87134 67.6556 8.87134ZM67.1287 24.8835C64.3026 24.8835 61.6934 22.7952 61.6934 18.8591C61.6934 14.7361 64.2895 12.8347 67.1149 12.821C70.3456 12.821 72.4555 15.4943 72.4555 18.8591C72.4555 22.1172 70.3594 24.8707 67.1287 24.8835Z" fill="#292929"/>
<path d="M89.8002 8.92365C88.8011 8.87974 87.8079 9.09529 86.9203 9.54865C86.1674 10.0002 85.58 10.6757 85.2434 11.4773L80.7419 9.41548V28.2742H85.2172V18.5134C85.2172 17.2634 85.1634 15.4278 86.4341 14.1642C87.9079 12.688 90.8148 13.2729 91.3825 13.739L93.2755 9.78926C92.2191 9.19412 91.0173 8.89477 89.8002 8.92365Z" fill="#292929"/>
<path d="M114.598 18.8458C114.565 21.5016 113.469 24.0376 111.548 25.9041C109.627 27.7707 107.036 28.8174 104.336 28.8174C101.635 28.8174 99.0441 27.7707 97.1232 25.9041C95.2023 24.0376 94.1065 21.5016 94.0735 18.8458C94.0596 13.0196 98.5349 8.87086 104.322 8.87086C110.124 8.87086 114.598 13.0203 114.598 18.8458ZM110.042 18.8458C110.042 14.5366 107.162 12.8077 104.336 12.8077C101.511 12.8077 98.6442 14.5366 98.6442 18.8458C98.6442 22.4777 100.848 24.8838 104.349 24.8702C107.866 24.8702 110.042 22.4762 110.042 18.8458Z" fill="#292929"/>
</g>
<g id="Group 4089">
<g id="Group 4088">
<path id="Path 30451" d="M0 0L8.93677 18.8451L12.1413 0H0Z" fill="#00A5DF"/>
<path id="Path 30452" d="M12.1429 0L6.07227 12.807L11.5614 24.3777L17.6321 11.5707C15.1444 6.35736 12.1429 0 12.1429 0Z" fill="#2581C4"/>
<path id="Path 30453" d="M8.93555 18.8452L12.1401 37.7039L21.0769 18.8452H8.93555Z" fill="#004A7D"/>
<path id="Path 30457" d="M0 37.7039H12.1413L15.0074 31.6507L8.93677 18.8452L0 37.7039Z" fill="#1D71B8"/>
</g>
<g id="Group 4087">
<path id="Path 30462" d="M30.0156 37.7039H42.157L33.2202 18.8452L30.0156 37.7039Z" fill="#ED694B"/>
<path id="Path 30463" d="M24.5273 26.1195L30.0165 37.7031L36.0871 24.8824L30.598 13.3125L24.5273 26.1195Z" fill="#E94E24"/>
<path id="Path 30464" d="M21.0801 18.8451H33.2214L30.0168 0L21.0801 18.8451Z" fill="#A43917"/>
<path id="Path 30465" d="M30.0165 0L27.1504 6.03806L33.2211 18.8451L42.1578 0H30.0165Z" fill="#F39200"/>
</g>
</g>
<g id="Vector_2">
<mask id="path-10-outside-1_339:55669" maskUnits="userSpaceOnUse" x="88.9707" y="36.3318" width="96" height="12" fill="black">
<rect fill="white" x="88.9707" y="36.3318" width="96" height="12"/>
<path d="M91.3528 37.7392L93.582 43.2788L95.8542 37.3318L98.0386 43.2805L100.342 37.7392H101.739L97.9676 46.5534L95.7697 40.6778L93.5515 46.5534L89.9707 37.7392H91.3528Z"/>
<path d="M106.493 44.8301C106.281 45.2147 105.974 45.5411 105.601 45.7797C105.13 46.0551 104.588 46.1921 104.041 46.1747C103.71 46.1931 103.379 46.1426 103.069 46.0267C102.759 45.9108 102.477 45.732 102.243 45.502C101.984 45.2355 101.781 44.9215 101.646 44.578C101.511 44.2344 101.446 43.868 101.455 43.4997C101.437 42.7019 101.741 41.9297 102.3 41.3511C102.533 41.1203 102.811 40.939 103.117 40.8183C103.424 40.6976 103.753 40.6401 104.083 40.6493C104.401 40.6412 104.717 40.6981 105.011 40.8165C105.306 40.9349 105.572 41.1121 105.793 41.3369C106.319 41.9518 106.585 42.7417 106.536 43.5438V43.6901H102.719C102.746 44.0824 102.909 44.4538 103.18 44.7428C103.305 44.8615 103.455 44.9525 103.619 45.0099C103.783 45.0672 103.958 45.0896 104.131 45.0754C104.436 45.0893 104.735 44.9961 104.976 44.8127C105.176 44.656 105.342 44.4625 105.467 44.2431L106.493 44.8301ZM105.275 42.6965C105.229 42.4268 105.093 42.1799 104.888 41.9947C104.646 41.7986 104.34 41.695 104.026 41.7031C103.712 41.7112 103.412 41.8304 103.18 42.0387C102.992 42.2245 102.858 42.457 102.794 42.7114H105.275V42.6965Z"/>
<path d="M114.443 42.388C114.25 42.1879 114.017 42.028 113.759 41.9176C113.502 41.8072 113.224 41.7486 112.943 41.7453C112.726 41.7386 112.51 41.7754 112.309 41.8533C112.107 41.9312 111.923 42.0486 111.769 42.1984C111.615 42.3583 111.496 42.5465 111.417 42.7522C111.337 42.9578 111.301 43.1769 111.308 43.3967C111.298 43.6268 111.336 43.8565 111.417 44.0723C111.499 44.2882 111.623 44.4859 111.783 44.6539C112.089 44.9346 112.494 45.0867 112.913 45.078C113.201 45.0754 113.486 45.0143 113.749 44.8985C114.012 44.7828 114.248 44.6149 114.443 44.4053V45.7648C113.957 46.0576 113.392 46.2001 112.823 46.1739C112.449 46.1962 112.075 46.1384 111.726 46.0046C111.378 45.8708 111.062 45.6642 110.803 45.399C110.296 44.871 110.022 44.1668 110.042 43.4407C110.061 42.9433 110.209 42.459 110.473 42.034C110.736 41.6089 111.106 41.2573 111.547 41.0127C111.987 40.768 112.484 40.6384 112.99 40.6362C113.497 40.634 113.995 40.7593 114.438 41.0002V42.3889L114.443 42.388Z"/>
<path d="M121.353 43.4106C121.359 43.9641 121.198 44.5068 120.889 44.97C120.581 45.4331 120.14 45.7957 119.622 46.0116C119.104 46.2275 118.532 46.2871 117.98 46.1827C117.427 46.0782 116.919 45.8146 116.519 45.4252C116.119 45.0358 115.845 44.5383 115.734 43.9958C115.622 43.4534 115.677 42.8904 115.891 42.3786C116.105 41.8668 116.469 41.4292 116.937 41.1214C117.405 40.8136 117.955 40.6495 118.517 40.6499C118.89 40.6401 119.261 40.7046 119.607 40.8395C119.954 40.9744 120.269 41.1769 120.534 41.4349C120.799 41.6928 121.008 42.0008 121.149 42.3404C121.289 42.6799 121.359 43.044 121.353 43.4106ZM120.09 43.4256C120.068 43.1238 119.957 42.8348 119.771 42.5941C119.584 42.3534 119.331 42.1715 119.041 42.0708C118.751 41.97 118.437 41.9547 118.138 42.0268C117.84 42.0989 117.569 42.2552 117.359 42.4766C117.149 42.698 117.01 42.9748 116.958 43.273C116.906 43.5712 116.944 43.8778 117.067 44.1552C117.189 44.4326 117.392 44.6687 117.649 44.8345C117.906 45.0003 118.207 45.0887 118.515 45.0886C118.733 45.0944 118.95 45.0546 119.152 44.9716C119.353 44.8886 119.534 44.7644 119.683 44.6073C119.832 44.4502 119.945 44.2637 120.015 44.0603C120.086 43.8568 120.111 43.641 120.09 43.4272V43.4256Z"/>
<path d="M126.803 37.7403V41.4073C126.618 41.1703 126.38 40.9791 126.106 40.8491C125.833 40.7192 125.532 40.654 125.228 40.659C124.871 40.6596 124.519 40.7326 124.192 40.8733C123.865 41.0141 123.571 41.2197 123.328 41.4771C123.086 41.7346 122.9 42.0385 122.782 42.3699C122.664 42.7012 122.617 43.0529 122.643 43.403C122.616 43.7538 122.661 44.1065 122.777 44.4393C122.893 44.7722 123.077 45.0781 123.318 45.3383C123.559 45.5985 123.851 45.8074 124.178 45.9522C124.504 46.097 124.856 46.1746 125.214 46.1803C125.515 46.1864 125.814 46.1267 126.089 46.0053C126.364 45.8839 126.608 45.704 126.804 45.4785V46.0189H128.037V37.7403H126.803ZM125.377 45.0918C124.969 45.0329 124.595 44.8314 124.325 44.5242C124.056 44.2169 123.907 43.8244 123.907 43.4184C123.907 43.0123 124.056 42.6198 124.325 42.3125C124.595 42.0053 124.969 41.8038 125.377 41.7449C125.792 41.7957 126.174 41.9938 126.45 42.3019C126.727 42.6101 126.88 43.0072 126.88 43.4184C126.88 43.8296 126.727 44.2266 126.45 44.5348C126.174 44.843 125.792 45.0411 125.377 45.0918Z"/>
<path d="M134.664 44.8301C134.452 45.2147 134.145 45.5411 133.772 45.7797C133.301 46.0551 132.76 46.1921 132.212 46.1747C131.881 46.1931 131.55 46.1426 131.24 46.0267C130.93 45.9108 130.649 45.732 130.414 45.502C130.155 45.2355 129.952 44.9215 129.817 44.578C129.682 44.2344 129.617 43.868 129.626 43.4997C129.609 42.7019 129.912 41.9297 130.471 41.3511C130.704 41.1204 130.982 40.9391 131.289 40.8184C131.595 40.6977 131.924 40.6401 132.254 40.6493C132.572 40.6413 132.887 40.6982 133.181 40.8164C133.475 40.9347 133.741 41.1116 133.962 41.3361C134.488 41.9509 134.754 42.7409 134.705 43.5429V43.6893H130.887C130.914 44.0816 131.077 44.453 131.348 44.742C131.473 44.8607 131.623 44.9517 131.787 45.0091C131.951 45.0664 132.125 45.0888 132.299 45.0746C132.603 45.0884 132.903 44.9953 133.144 44.8119C133.344 44.6552 133.51 44.4617 133.634 44.2423L134.664 44.8301ZM133.446 42.6965C133.4 42.4268 133.264 42.1798 133.06 41.9947C132.817 41.7985 132.511 41.695 132.197 41.7031C131.883 41.7112 131.583 41.8304 131.351 42.0387C131.163 42.2245 131.029 42.457 130.965 42.7114H133.446V42.6965Z"/>
<path d="M140.891 42.1699C140.814 42.036 140.704 41.9239 140.571 41.8444C140.438 41.765 140.286 41.721 140.13 41.7167C140.062 41.7131 139.994 41.7229 139.931 41.7455C139.867 41.768 139.808 41.8029 139.759 41.8481C139.684 41.9223 139.642 42.0217 139.639 42.1258C139.638 42.1862 139.654 42.2456 139.686 42.2974C139.717 42.3491 139.763 42.3911 139.818 42.4185C139.892 42.4626 139.967 42.4917 140.234 42.6231L140.873 42.9299C141.147 43.0472 141.398 43.2104 141.616 43.4122C141.745 43.5374 141.847 43.6879 141.913 43.8541C141.98 44.0203 142.01 44.1983 142.002 44.3768C142.002 44.818 141.838 45.244 141.541 45.575C141.353 45.7737 141.121 45.9289 140.865 46.0295C140.608 46.1301 140.331 46.1737 140.055 46.157C139.646 46.1801 139.242 46.0625 138.912 45.8244C138.599 45.5763 138.362 45.2476 138.228 44.8748L139.242 44.4075C139.302 44.5904 139.398 44.7599 139.524 44.9064C139.598 44.9745 139.684 45.0276 139.778 45.0627C139.873 45.0978 139.973 45.1142 140.074 45.111C140.26 45.1188 140.441 45.0559 140.581 44.9355C140.691 44.8259 140.754 44.6799 140.76 44.5264C140.762 44.4531 140.748 44.3801 140.72 44.3121C140.692 44.2441 140.65 44.1826 140.596 44.1315C140.441 43.9909 140.259 43.8816 140.061 43.8097L139.601 43.6051C139.333 43.4964 139.087 43.3431 138.873 43.1519C138.749 43.0418 138.651 42.906 138.587 42.7543C138.523 42.6026 138.494 42.4388 138.502 42.2747C138.5 41.8576 138.659 41.4555 138.947 41.1496C139.117 40.9801 139.321 40.8479 139.546 40.7619C139.772 40.6759 140.013 40.638 140.255 40.6507C140.604 40.6366 140.948 40.7341 141.235 40.9284C141.488 41.0912 141.697 41.3118 141.845 41.5712L140.891 42.1699Z"/>
<path d="M148.184 44.8301C147.972 45.2147 147.666 45.5411 147.293 45.7797C146.821 46.0551 146.28 46.1921 145.732 46.1747C145.401 46.1931 145.07 46.1426 144.76 46.0267C144.45 45.9108 144.169 45.732 143.934 45.502C143.675 45.2355 143.473 44.9215 143.338 44.578C143.202 44.2344 143.137 43.868 143.146 43.4997C143.129 42.7019 143.433 41.9297 143.992 41.3511C144.224 41.1203 144.502 40.939 144.809 40.8183C145.116 40.6976 145.444 40.6401 145.774 40.6493C146.092 40.6413 146.408 40.6982 146.702 40.8165C146.996 40.9347 147.262 41.1116 147.483 41.3361C148.009 41.9509 148.275 42.7409 148.226 43.543V43.6893H144.407C144.435 44.0816 144.597 44.453 144.868 44.742C144.994 44.8607 145.143 44.9517 145.307 45.0091C145.471 45.0664 145.646 45.0888 145.819 45.0746C146.124 45.0884 146.423 44.9953 146.664 44.8119C146.864 44.6552 147.031 44.4617 147.155 44.2423L148.184 44.8301ZM146.966 42.6965C146.92 42.4268 146.784 42.1799 146.58 41.9947C146.337 41.7986 146.031 41.695 145.717 41.7031C145.404 41.7112 145.103 41.8304 144.872 42.0387C144.683 42.2245 144.55 42.457 144.485 42.7114H146.966V42.6965Z"/>
<path d="M151.04 40.7958V41.2631C151.188 41.0903 151.364 40.9423 151.56 40.8249C151.793 40.6997 152.056 40.6391 152.321 40.6494C152.661 40.6382 152.996 40.7249 153.287 40.8989L152.78 42.0098C152.591 41.8847 152.368 41.8184 152.141 41.8194C151.998 41.8091 151.855 41.83 151.721 41.8806C151.587 41.9312 151.467 42.0103 151.368 42.1121C151.104 42.4546 150.983 42.8831 151.03 43.3103V46.0144H149.792V40.7958H151.04Z"/>
<path d="M155.006 37.8429C155.217 37.8429 155.419 37.9253 155.568 38.072C155.717 38.2187 155.801 38.4176 155.801 38.625C155.801 38.8324 155.717 39.0313 155.568 39.178C155.419 39.3246 155.217 39.407 155.006 39.407C154.795 39.407 154.593 39.3246 154.444 39.178C154.295 39.0313 154.211 38.8324 154.211 38.625C154.211 38.4176 154.295 38.2187 154.444 38.072C154.593 37.9253 154.795 37.8429 155.006 37.8429ZM155.63 40.7948V46.0251H154.398V40.7948H155.63Z"/>
<path d="M162.837 43.4104C162.843 43.9636 162.681 44.5062 162.373 44.969C162.065 45.4319 161.624 45.7942 161.106 46.0099C160.588 46.2257 160.016 46.2851 159.464 46.1807C158.911 46.0763 158.403 45.8128 158.003 45.4236C157.603 45.0344 157.33 44.5371 157.218 43.9948C157.106 43.4526 157.161 42.8898 157.375 42.3781C157.589 41.8663 157.952 41.4286 158.419 41.1206C158.887 40.8125 159.437 40.6481 159.999 40.648C160.372 40.6379 160.743 40.7022 161.09 40.837C161.437 40.9719 161.753 41.1745 162.018 41.4326C162.283 41.6908 162.493 41.9991 162.633 42.339C162.774 42.679 162.843 43.0434 162.837 43.4104ZM161.574 43.4253C161.552 43.1235 161.441 42.8346 161.255 42.5939C161.069 42.3532 160.815 42.1713 160.525 42.0705C160.235 41.9697 159.921 41.9545 159.623 42.0265C159.324 42.0986 159.053 42.255 158.843 42.4764C158.634 42.6977 158.494 42.9745 158.442 43.2727C158.39 43.5709 158.428 43.8776 158.551 44.155C158.674 44.4324 158.876 44.6685 159.133 44.8343C159.391 45.0001 159.692 45.0884 159.999 45.0884C160.217 45.0942 160.435 45.0543 160.636 44.9713C160.837 44.8884 161.019 44.7642 161.168 44.6071C161.316 44.45 161.43 44.2635 161.5 44.06C161.57 43.8566 161.595 43.6408 161.574 43.427V43.4253Z"/>
<path d="M165.599 40.7955V43.789C165.57 44.1208 165.648 44.4531 165.822 44.7386C165.92 44.854 166.043 44.9466 166.181 45.0097C166.32 45.0728 166.471 45.1049 166.624 45.1036C166.778 45.1097 166.931 45.0798 167.07 45.0164C167.21 44.9529 167.332 44.8577 167.426 44.7386C167.602 44.4538 167.681 44.1209 167.65 43.789V40.7955H168.883V43.8206C168.918 44.1287 168.885 44.4405 168.788 44.7353C168.691 45.0301 168.53 45.3011 168.318 45.5302C167.851 45.9578 167.232 46.1885 166.595 46.173C166.285 46.1799 165.978 46.1267 165.69 46.0164C165.402 45.9061 165.139 45.7409 164.916 45.5302C164.703 45.3011 164.543 45.0301 164.446 44.7353C164.348 44.4405 164.316 44.1287 164.351 43.8206V40.7955H165.599Z"/>
<path d="M172.983 42.1699C172.907 42.036 172.797 41.9239 172.663 41.8444C172.53 41.765 172.378 41.721 172.222 41.7167C172.154 41.7131 172.087 41.7229 172.023 41.7455C171.959 41.768 171.901 41.8029 171.851 41.8481C171.776 41.9223 171.734 42.0217 171.732 42.1258C171.73 42.1862 171.747 42.2456 171.778 42.2974C171.81 42.3491 171.855 42.3911 171.91 42.4185C171.984 42.4626 172.059 42.4917 172.326 42.6231L172.965 42.9299C173.239 43.0472 173.491 43.2104 173.708 43.4122C173.838 43.5374 173.939 43.6879 174.005 43.8541C174.072 44.0203 174.102 44.1983 174.094 44.3768C174.094 44.818 173.93 45.244 173.634 45.575C173.445 45.7737 173.214 45.9289 172.957 46.0295C172.7 46.1301 172.424 46.1737 172.148 46.157C171.739 46.1801 171.334 46.0625 171.004 45.8244C170.691 45.5763 170.454 45.2476 170.32 44.8748L171.334 44.4075C171.394 44.5904 171.49 44.7599 171.617 44.9064C171.69 44.9745 171.776 45.0276 171.871 45.0627C171.965 45.0978 172.065 45.1142 172.166 45.111C172.352 45.1188 172.533 45.0559 172.673 44.9355C172.783 44.8259 172.846 44.6799 172.852 44.5264C172.854 44.4531 172.84 44.3801 172.812 44.3121C172.784 44.2441 172.742 44.1826 172.689 44.1315C172.533 43.9909 172.351 43.8816 172.153 43.8097L171.693 43.6051C171.425 43.4964 171.179 43.343 170.965 43.1519C170.841 43.0418 170.743 42.906 170.679 42.7543C170.615 42.6026 170.586 42.4388 170.594 42.2747C170.592 41.8576 170.751 41.4555 171.039 41.1496C171.209 40.9801 171.413 40.8479 171.639 40.7619C171.864 40.6759 172.106 40.638 172.347 40.6507C172.696 40.6366 173.04 40.7341 173.328 40.9284C173.58 41.0912 173.79 41.3117 173.937 41.5712L172.983 42.1699Z"/>
<path d="M176.788 37.7403H175.555V46.0273H176.788V37.7403Z"/>
<path d="M178.751 47.9574H180.133L183.892 40.7955H182.495L180.965 43.8505L179.45 40.7955H177.963L180.221 45.1951L178.751 47.9574Z"/>
</mask>
<path d="M91.3528 37.7392L93.582 43.2788L95.8542 37.3318L98.0386 43.2805L100.342 37.7392H101.739L97.9676 46.5534L95.7697 40.6778L93.5515 46.5534L89.9707 37.7392H91.3528Z" fill="#292929"/>
<path d="M106.493 44.8301C106.281 45.2147 105.974 45.5411 105.601 45.7797C105.13 46.0551 104.588 46.1921 104.041 46.1747C103.71 46.1931 103.379 46.1426 103.069 46.0267C102.759 45.9108 102.477 45.732 102.243 45.502C101.984 45.2355 101.781 44.9215 101.646 44.578C101.511 44.2344 101.446 43.868 101.455 43.4997C101.437 42.7019 101.741 41.9297 102.3 41.3511C102.533 41.1203 102.811 40.939 103.117 40.8183C103.424 40.6976 103.753 40.6401 104.083 40.6493C104.401 40.6412 104.717 40.6981 105.011 40.8165C105.306 40.9349 105.572 41.1121 105.793 41.3369C106.319 41.9518 106.585 42.7417 106.536 43.5438V43.6901H102.719C102.746 44.0824 102.909 44.4538 103.18 44.7428C103.305 44.8615 103.455 44.9525 103.619 45.0099C103.783 45.0672 103.958 45.0896 104.131 45.0754C104.436 45.0893 104.735 44.9961 104.976 44.8127C105.176 44.656 105.342 44.4625 105.467 44.2431L106.493 44.8301ZM105.275 42.6965C105.229 42.4268 105.093 42.1799 104.888 41.9947C104.646 41.7986 104.34 41.695 104.026 41.7031C103.712 41.7112 103.412 41.8304 103.18 42.0387C102.992 42.2245 102.858 42.457 102.794 42.7114H105.275V42.6965Z" fill="#292929"/>
<path d="M114.443 42.388C114.25 42.1879 114.017 42.028 113.759 41.9176C113.502 41.8072 113.224 41.7486 112.943 41.7453C112.726 41.7386 112.51 41.7754 112.309 41.8533C112.107 41.9312 111.923 42.0486 111.769 42.1984C111.615 42.3583 111.496 42.5465 111.417 42.7522C111.337 42.9578 111.301 43.1769 111.308 43.3967C111.298 43.6268 111.336 43.8565 111.417 44.0723C111.499 44.2882 111.623 44.4859 111.783 44.6539C112.089 44.9346 112.494 45.0867 112.913 45.078C113.201 45.0754 113.486 45.0143 113.749 44.8985C114.012 44.7828 114.248 44.6149 114.443 44.4053V45.7648C113.957 46.0576 113.392 46.2001 112.823 46.1739C112.449 46.1962 112.075 46.1384 111.726 46.0046C111.378 45.8708 111.062 45.6642 110.803 45.399C110.296 44.871 110.022 44.1668 110.042 43.4407C110.061 42.9433 110.209 42.459 110.473 42.034C110.736 41.6089 111.106 41.2573 111.547 41.0127C111.987 40.768 112.484 40.6384 112.99 40.6362C113.497 40.634 113.995 40.7593 114.438 41.0002V42.3889L114.443 42.388Z" fill="#292929"/>
<path d="M121.353 43.4106C121.359 43.9641 121.198 44.5068 120.889 44.97C120.581 45.4331 120.14 45.7957 119.622 46.0116C119.104 46.2275 118.532 46.2871 117.98 46.1827C117.427 46.0782 116.919 45.8146 116.519 45.4252C116.119 45.0358 115.845 44.5383 115.734 43.9958C115.622 43.4534 115.677 42.8904 115.891 42.3786C116.105 41.8668 116.469 41.4292 116.937 41.1214C117.405 40.8136 117.955 40.6495 118.517 40.6499C118.89 40.6401 119.261 40.7046 119.607 40.8395C119.954 40.9744 120.269 41.1769 120.534 41.4349C120.799 41.6928 121.008 42.0008 121.149 42.3404C121.289 42.6799 121.359 43.044 121.353 43.4106ZM120.09 43.4256C120.068 43.1238 119.957 42.8348 119.771 42.5941C119.584 42.3534 119.331 42.1715 119.041 42.0708C118.751 41.97 118.437 41.9547 118.138 42.0268C117.84 42.0989 117.569 42.2552 117.359 42.4766C117.149 42.698 117.01 42.9748 116.958 43.273C116.906 43.5712 116.944 43.8778 117.067 44.1552C117.189 44.4326 117.392 44.6687 117.649 44.8345C117.906 45.0003 118.207 45.0887 118.515 45.0886C118.733 45.0944 118.95 45.0546 119.152 44.9716C119.353 44.8886 119.534 44.7644 119.683 44.6073C119.832 44.4502 119.945 44.2637 120.015 44.0603C120.086 43.8568 120.111 43.641 120.09 43.4272V43.4256Z" fill="#292929"/>
<path d="M126.803 37.7403V41.4073C126.618 41.1703 126.38 40.9791 126.106 40.8491C125.833 40.7192 125.532 40.654 125.228 40.659C124.871 40.6596 124.519 40.7326 124.192 40.8733C123.865 41.0141 123.571 41.2197 123.328 41.4771C123.086 41.7346 122.9 42.0385 122.782 42.3699C122.664 42.7012 122.617 43.0529 122.643 43.403C122.616 43.7538 122.661 44.1065 122.777 44.4393C122.893 44.7722 123.077 45.0781 123.318 45.3383C123.559 45.5985 123.851 45.8074 124.178 45.9522C124.504 46.097 124.856 46.1746 125.214 46.1803C125.515 46.1864 125.814 46.1267 126.089 46.0053C126.364 45.8839 126.608 45.704 126.804 45.4785V46.0189H128.037V37.7403H126.803ZM125.377 45.0918C124.969 45.0329 124.595 44.8314 124.325 44.5242C124.056 44.2169 123.907 43.8244 123.907 43.4184C123.907 43.0123 124.056 42.6198 124.325 42.3125C124.595 42.0053 124.969 41.8038 125.377 41.7449C125.792 41.7957 126.174 41.9938 126.45 42.3019C126.727 42.6101 126.88 43.0072 126.88 43.4184C126.88 43.8296 126.727 44.2266 126.45 44.5348C126.174 44.843 125.792 45.0411 125.377 45.0918Z" fill="#292929"/>
<path d="M134.664 44.8301C134.452 45.2147 134.145 45.5411 133.772 45.7797C133.301 46.0551 132.76 46.1921 132.212 46.1747C131.881 46.1931 131.55 46.1426 131.24 46.0267C130.93 45.9108 130.649 45.732 130.414 45.502C130.155 45.2355 129.952 44.9215 129.817 44.578C129.682 44.2344 129.617 43.868 129.626 43.4997C129.609 42.7019 129.912 41.9297 130.471 41.3511C130.704 41.1204 130.982 40.9391 131.289 40.8184C131.595 40.6977 131.924 40.6401 132.254 40.6493C132.572 40.6413 132.887 40.6982 133.181 40.8164C133.475 40.9347 133.741 41.1116 133.962 41.3361C134.488 41.9509 134.754 42.7409 134.705 43.5429V43.6893H130.887C130.914 44.0816 131.077 44.453 131.348 44.742C131.473 44.8607 131.623 44.9517 131.787 45.0091C131.951 45.0664 132.125 45.0888 132.299 45.0746C132.603 45.0884 132.903 44.9953 133.144 44.8119C133.344 44.6552 133.51 44.4617 133.634 44.2423L134.664 44.8301ZM133.446 42.6965C133.4 42.4268 133.264 42.1798 133.06 41.9947C132.817 41.7985 132.511 41.695 132.197 41.7031C131.883 41.7112 131.583 41.8304 131.351 42.0387C131.163 42.2245 131.029 42.457 130.965 42.7114H133.446V42.6965Z" fill="#292929"/>
<path d="M140.891 42.1699C140.814 42.036 140.704 41.9239 140.571 41.8444C140.438 41.765 140.286 41.721 140.13 41.7167C140.062 41.7131 139.994 41.7229 139.931 41.7455C139.867 41.768 139.808 41.8029 139.759 41.8481C139.684 41.9223 139.642 42.0217 139.639 42.1258C139.638 42.1862 139.654 42.2456 139.686 42.2974C139.717 42.3491 139.763 42.3911 139.818 42.4185C139.892 42.4626 139.967 42.4917 140.234 42.6231L140.873 42.9299C141.147 43.0472 141.398 43.2104 141.616 43.4122C141.745 43.5374 141.847 43.6879 141.913 43.8541C141.98 44.0203 142.01 44.1983 142.002 44.3768C142.002 44.818 141.838 45.244 141.541 45.575C141.353 45.7737 141.121 45.9289 140.865 46.0295C140.608 46.1301 140.331 46.1737 140.055 46.157C139.646 46.1801 139.242 46.0625 138.912 45.8244C138.599 45.5763 138.362 45.2476 138.228 44.8748L139.242 44.4075C139.302 44.5904 139.398 44.7599 139.524 44.9064C139.598 44.9745 139.684 45.0276 139.778 45.0627C139.873 45.0978 139.973 45.1142 140.074 45.111C140.26 45.1188 140.441 45.0559 140.581 44.9355C140.691 44.8259 140.754 44.6799 140.76 44.5264C140.762 44.4531 140.748 44.3801 140.72 44.3121C140.692 44.2441 140.65 44.1826 140.596 44.1315C140.441 43.9909 140.259 43.8816 140.061 43.8097L139.601 43.6051C139.333 43.4964 139.087 43.3431 138.873 43.1519C138.749 43.0418 138.651 42.906 138.587 42.7543C138.523 42.6026 138.494 42.4388 138.502 42.2747C138.5 41.8576 138.659 41.4555 138.947 41.1496C139.117 40.9801 139.321 40.8479 139.546 40.7619C139.772 40.6759 140.013 40.638 140.255 40.6507C140.604 40.6366 140.948 40.7341 141.235 40.9284C141.488 41.0912 141.697 41.3118 141.845 41.5712L140.891 42.1699Z" fill="#292929"/>
<path d="M148.184 44.8301C147.972 45.2147 147.666 45.5411 147.293 45.7797C146.821 46.0551 146.28 46.1921 145.732 46.1747C145.401 46.1931 145.07 46.1426 144.76 46.0267C144.45 45.9108 144.169 45.732 143.934 45.502C143.675 45.2355 143.473 44.9215 143.338 44.578C143.202 44.2344 143.137 43.868 143.146 43.4997C143.129 42.7019 143.433 41.9297 143.992 41.3511C144.224 41.1203 144.502 40.939 144.809 40.8183C145.116 40.6976 145.444 40.6401 145.774 40.6493C146.092 40.6413 146.408 40.6982 146.702 40.8165C146.996 40.9347 147.262 41.1116 147.483 41.3361C148.009 41.9509 148.275 42.7409 148.226 43.543V43.6893H144.407C144.435 44.0816 144.597 44.453 144.868 44.742C144.994 44.8607 145.143 44.9517 145.307 45.0091C145.471 45.0664 145.646 45.0888 145.819 45.0746C146.124 45.0884 146.423 44.9953 146.664 44.8119C146.864 44.6552 147.031 44.4617 147.155 44.2423L148.184 44.8301ZM146.966 42.6965C146.92 42.4268 146.784 42.1799 146.58 41.9947C146.337 41.7986 146.031 41.695 145.717 41.7031C145.404 41.7112 145.103 41.8304 144.872 42.0387C144.683 42.2245 144.55 42.457 144.485 42.7114H146.966V42.6965Z" fill="#292929"/>
<path d="M151.04 40.7958V41.2631C151.188 41.0903 151.364 40.9423 151.56 40.8249C151.793 40.6997 152.056 40.6391 152.321 40.6494C152.661 40.6382 152.996 40.7249 153.287 40.8989L152.78 42.0098C152.591 41.8847 152.368 41.8184 152.141 41.8194C151.998 41.8091 151.855 41.83 151.721 41.8806C151.587 41.9312 151.467 42.0103 151.368 42.1121C151.104 42.4546 150.983 42.8831 151.03 43.3103V46.0144H149.792V40.7958H151.04Z" fill="#292929"/>
<path d="M155.006 37.8429C155.217 37.8429 155.419 37.9253 155.568 38.072C155.717 38.2187 155.801 38.4176 155.801 38.625C155.801 38.8324 155.717 39.0313 155.568 39.178C155.419 39.3246 155.217 39.407 155.006 39.407C154.795 39.407 154.593 39.3246 154.444 39.178C154.295 39.0313 154.211 38.8324 154.211 38.625C154.211 38.4176 154.295 38.2187 154.444 38.072C154.593 37.9253 154.795 37.8429 155.006 37.8429ZM155.63 40.7948V46.0251H154.398V40.7948H155.63Z" fill="#292929"/>
<path d="M162.837 43.4104C162.843 43.9636 162.681 44.5062 162.373 44.969C162.065 45.4319 161.624 45.7942 161.106 46.0099C160.588 46.2257 160.016 46.2851 159.464 46.1807C158.911 46.0763 158.403 45.8128 158.003 45.4236C157.603 45.0344 157.33 44.5371 157.218 43.9948C157.106 43.4526 157.161 42.8898 157.375 42.3781C157.589 41.8663 157.952 41.4286 158.419 41.1206C158.887 40.8125 159.437 40.6481 159.999 40.648C160.372 40.6379 160.743 40.7022 161.09 40.837C161.437 40.9719 161.753 41.1745 162.018 41.4326C162.283 41.6908 162.493 41.9991 162.633 42.339C162.774 42.679 162.843 43.0434 162.837 43.4104ZM161.574 43.4253C161.552 43.1235 161.441 42.8346 161.255 42.5939C161.069 42.3532 160.815 42.1713 160.525 42.0705C160.235 41.9697 159.921 41.9545 159.623 42.0265C159.324 42.0986 159.053 42.255 158.843 42.4764C158.634 42.6977 158.494 42.9745 158.442 43.2727C158.39 43.5709 158.428 43.8776 158.551 44.155C158.674 44.4324 158.876 44.6685 159.133 44.8343C159.391 45.0001 159.692 45.0884 159.999 45.0884C160.217 45.0942 160.435 45.0543 160.636 44.9713C160.837 44.8884 161.019 44.7642 161.168 44.6071C161.316 44.45 161.43 44.2635 161.5 44.06C161.57 43.8566 161.595 43.6408 161.574 43.427V43.4253Z" fill="#292929"/>
<path d="M165.599 40.7955V43.789C165.57 44.1208 165.648 44.4531 165.822 44.7386C165.92 44.854 166.043 44.9466 166.181 45.0097C166.32 45.0728 166.471 45.1049 166.624 45.1036C166.778 45.1097 166.931 45.0798 167.07 45.0164C167.21 44.9529 167.332 44.8577 167.426 44.7386C167.602 44.4538 167.681 44.1209 167.65 43.789V40.7955H168.883V43.8206C168.918 44.1287 168.885 44.4405 168.788 44.7353C168.691 45.0301 168.53 45.3011 168.318 45.5302C167.851 45.9578 167.232 46.1885 166.595 46.173C166.285 46.1799 165.978 46.1267 165.69 46.0164C165.402 45.9061 165.139 45.7409 164.916 45.5302C164.703 45.3011 164.543 45.0301 164.446 44.7353C164.348 44.4405 164.316 44.1287 164.351 43.8206V40.7955H165.599Z" fill="#292929"/>
<path d="M172.983 42.1699C172.907 42.036 172.797 41.9239 172.663 41.8444C172.53 41.765 172.378 41.721 172.222 41.7167C172.154 41.7131 172.087 41.7229 172.023 41.7455C171.959 41.768 171.901 41.8029 171.851 41.8481C171.776 41.9223 171.734 42.0217 171.732 42.1258C171.73 42.1862 171.747 42.2456 171.778 42.2974C171.81 42.3491 171.855 42.3911 171.91 42.4185C171.984 42.4626 172.059 42.4917 172.326 42.6231L172.965 42.9299C173.239 43.0472 173.491 43.2104 173.708 43.4122C173.838 43.5374 173.939 43.6879 174.005 43.8541C174.072 44.0203 174.102 44.1983 174.094 44.3768C174.094 44.818 173.93 45.244 173.634 45.575C173.445 45.7737 173.214 45.9289 172.957 46.0295C172.7 46.1301 172.424 46.1737 172.148 46.157C171.739 46.1801 171.334 46.0625 171.004 45.8244C170.691 45.5763 170.454 45.2476 170.32 44.8748L171.334 44.4075C171.394 44.5904 171.49 44.7599 171.617 44.9064C171.69 44.9745 171.776 45.0276 171.871 45.0627C171.965 45.0978 172.065 45.1142 172.166 45.111C172.352 45.1188 172.533 45.0559 172.673 44.9355C172.783 44.8259 172.846 44.6799 172.852 44.5264C172.854 44.4531 172.84 44.3801 172.812 44.3121C172.784 44.2441 172.742 44.1826 172.689 44.1315C172.533 43.9909 172.351 43.8816 172.153 43.8097L171.693 43.6051C171.425 43.4964 171.179 43.343 170.965 43.1519C170.841 43.0418 170.743 42.906 170.679 42.7543C170.615 42.6026 170.586 42.4388 170.594 42.2747C170.592 41.8576 170.751 41.4555 171.039 41.1496C171.209 40.9801 171.413 40.8479 171.639 40.7619C171.864 40.6759 172.106 40.638 172.347 40.6507C172.696 40.6366 173.04 40.7341 173.328 40.9284C173.58 41.0912 173.79 41.3117 173.937 41.5712L172.983 42.1699Z" fill="#292929"/>
<path d="M176.788 37.7403H175.555V46.0273H176.788V37.7403Z" fill="#292929"/>
<path d="M178.751 47.9574H180.133L183.892 40.7955H182.495L180.965 43.8505L179.45 40.7955H177.963L180.221 45.1951L178.751 47.9574Z" fill="#292929"/>
<path d="M91.3528 37.7392L93.582 43.2788L95.8542 37.3318L98.0386 43.2805L100.342 37.7392H101.739L97.9676 46.5534L95.7697 40.6778L93.5515 46.5534L89.9707 37.7392H91.3528Z" stroke="black" stroke-width="0.107429" mask="url(#path-10-outside-1_339:55669)"/>
<path d="M106.493 44.8301C106.281 45.2147 105.974 45.5411 105.601 45.7797C105.13 46.0551 104.588 46.1921 104.041 46.1747C103.71 46.1931 103.379 46.1426 103.069 46.0267C102.759 45.9108 102.477 45.732 102.243 45.502C101.984 45.2355 101.781 44.9215 101.646 44.578C101.511 44.2344 101.446 43.868 101.455 43.4997C101.437 42.7019 101.741 41.9297 102.3 41.3511C102.533 41.1203 102.811 40.939 103.117 40.8183C103.424 40.6976 103.753 40.6401 104.083 40.6493C104.401 40.6412 104.717 40.6981 105.011 40.8165C105.306 40.9349 105.572 41.1121 105.793 41.3369C106.319 41.9518 106.585 42.7417 106.536 43.5438V43.6901H102.719C102.746 44.0824 102.909 44.4538 103.18 44.7428C103.305 44.8615 103.455 44.9525 103.619 45.0099C103.783 45.0672 103.958 45.0896 104.131 45.0754C104.436 45.0893 104.735 44.9961 104.976 44.8127C105.176 44.656 105.342 44.4625 105.467 44.2431L106.493 44.8301ZM105.275 42.6965C105.229 42.4268 105.093 42.1799 104.888 41.9947C104.646 41.7986 104.34 41.695 104.026 41.7031C103.712 41.7112 103.412 41.8304 103.18 42.0387C102.992 42.2245 102.858 42.457 102.794 42.7114H105.275V42.6965Z" stroke="black" stroke-width="0.107429" mask="url(#path-10-outside-1_339:55669)"/>
<path d="M114.443 42.388C114.25 42.1879 114.017 42.028 113.759 41.9176C113.502 41.8072 113.224 41.7486 112.943 41.7453C112.726 41.7386 112.51 41.7754 112.309 41.8533C112.107 41.9312 111.923 42.0486 111.769 42.1984C111.615 42.3583 111.496 42.5465 111.417 42.7522C111.337 42.9578 111.301 43.1769 111.308 43.3967C111.298 43.6268 111.336 43.8565 111.417 44.0723C111.499 44.2882 111.623 44.4859 111.783 44.6539C112.089 44.9346 112.494 45.0867 112.913 45.078C113.201 45.0754 113.486 45.0143 113.749 44.8985C114.012 44.7828 114.248 44.6149 114.443 44.4053V45.7648C113.957 46.0576 113.392 46.2001 112.823 46.1739C112.449 46.1962 112.075 46.1384 111.726 46.0046C111.378 45.8708 111.062 45.6642 110.803 45.399C110.296 44.871 110.022 44.1668 110.042 43.4407C110.061 42.9433 110.209 42.459 110.473 42.034C110.736 41.6089 111.106 41.2573 111.547 41.0127C111.987 40.768 112.484 40.6384 112.99 40.6362C113.497 40.634 113.995 40.7593 114.438 41.0002V42.3889L114.443 42.388Z" stroke="black" stroke-width="0.107429" mask="url(#path-10-outside-1_339:55669)"/>
<path d="M121.353 43.4106C121.359 43.9641 121.198 44.5068 120.889 44.97C120.581 45.4331 120.14 45.7957 119.622 46.0116C119.104 46.2275 118.532 46.2871 117.98 46.1827C117.427 46.0782 116.919 45.8146 116.519 45.4252C116.119 45.0358 115.845 44.5383 115.734 43.9958C115.622 43.4534 115.677 42.8904 115.891 42.3786C116.105 41.8668 116.469 41.4292 116.937 41.1214C117.405 40.8136 117.955 40.6495 118.517 40.6499C118.89 40.6401 119.261 40.7046 119.607 40.8395C119.954 40.9744 120.269 41.1769 120.534 41.4349C120.799 41.6928 121.008 42.0008 121.149 42.3404C121.289 42.6799 121.359 43.044 121.353 43.4106ZM120.09 43.4256C120.068 43.1238 119.957 42.8348 119.771 42.5941C119.584 42.3534 119.331 42.1715 119.041 42.0708C118.751 41.97 118.437 41.9547 118.138 42.0268C117.84 42.0989 117.569 42.2552 117.359 42.4766C117.149 42.698 117.01 42.9748 116.958 43.273C116.906 43.5712 116.944 43.8778 117.067 44.1552C117.189 44.4326 117.392 44.6687 117.649 44.8345C117.906 45.0003 118.207 45.0887 118.515 45.0886C118.733 45.0944 118.95 45.0546 119.152 44.9716C119.353 44.8886 119.534 44.7644 119.683 44.6073C119.832 44.4502 119.945 44.2637 120.015 44.0603C120.086 43.8568 120.111 43.641 120.09 43.4272V43.4256Z" stroke="black" stroke-width="0.107429" mask="url(#path-10-outside-1_339:55669)"/>
<path d="M126.803 37.7403V41.4073C126.618 41.1703 126.38 40.9791 126.106 40.8491C125.833 40.7192 125.532 40.654 125.228 40.659C124.871 40.6596 124.519 40.7326 124.192 40.8733C123.865 41.0141 123.571 41.2197 123.328 41.4771C123.086 41.7346 122.9 42.0385 122.782 42.3699C122.664 42.7012 122.617 43.0529 122.643 43.403C122.616 43.7538 122.661 44.1065 122.777 44.4393C122.893 44.7722 123.077 45.0781 123.318 45.3383C123.559 45.5985 123.851 45.8074 124.178 45.9522C124.504 46.097 124.856 46.1746 125.214 46.1803C125.515 46.1864 125.814 46.1267 126.089 46.0053C126.364 45.8839 126.608 45.704 126.804 45.4785V46.0189H128.037V37.7403H126.803ZM125.377 45.0918C124.969 45.0329 124.595 44.8314 124.325 44.5242C124.056 44.2169 123.907 43.8244 123.907 43.4184C123.907 43.0123 124.056 42.6198 124.325 42.3125C124.595 42.0053 124.969 41.8038 125.377 41.7449C125.792 41.7957 126.174 41.9938 126.45 42.3019C126.727 42.6101 126.88 43.0072 126.88 43.4184C126.88 43.8296 126.727 44.2266 126.45 44.5348C126.174 44.843 125.792 45.0411 125.377 45.0918Z" stroke="black" stroke-width="0.107429" mask="url(#path-10-outside-1_339:55669)"/>
<path d="M134.664 44.8301C134.452 45.2147 134.145 45.5411 133.772 45.7797C133.301 46.0551 132.76 46.1921 132.212 46.1747C131.881 46.1931 131.55 46.1426 131.24 46.0267C130.93 45.9108 130.649 45.732 130.414 45.502C130.155 45.2355 129.952 44.9215 129.817 44.578C129.682 44.2344 129.617 43.868 129.626 43.4997C129.609 42.7019 129.912 41.9297 130.471 41.3511C130.704 41.1204 130.982 40.9391 131.289 40.8184C131.595 40.6977 131.924 40.6401 132.254 40.6493C132.572 40.6413 132.887 40.6982 133.181 40.8164C133.475 40.9347 133.741 41.1116 133.962 41.3361C134.488 41.9509 134.754 42.7409 134.705 43.5429V43.6893H130.887C130.914 44.0816 131.077 44.453 131.348 44.742C131.473 44.8607 131.623 44.9517 131.787 45.0091C131.951 45.0664 132.125 45.0888 132.299 45.0746C132.603 45.0884 132.903 44.9953 133.144 44.8119C133.344 44.6552 133.51 44.4617 133.634 44.2423L134.664 44.8301ZM133.446 42.6965C133.4 42.4268 133.264 42.1798 133.06 41.9947C132.817 41.7985 132.511 41.695 132.197 41.7031C131.883 41.7112 131.583 41.8304 131.351 42.0387C131.163 42.2245 131.029 42.457 130.965 42.7114H133.446V42.6965Z" stroke="black" stroke-width="0.107429" mask="url(#path-10-outside-1_339:55669)"/>
<path d="M140.891 42.1699C140.814 42.036 140.704 41.9239 140.571 41.8444C140.438 41.765 140.286 41.721 140.13 41.7167C140.062 41.7131 139.994 41.7229 139.931 41.7455C139.867 41.768 139.808 41.8029 139.759 41.8481C139.684 41.9223 139.642 42.0217 139.639 42.1258C139.638 42.1862 139.654 42.2456 139.686 42.2974C139.717 42.3491 139.763 42.3911 139.818 42.4185C139.892 42.4626 139.967 42.4917 140.234 42.6231L140.873 42.9299C141.147 43.0472 141.398 43.2104 141.616 43.4122C141.745 43.5374 141.847 43.6879 141.913 43.8541C141.98 44.0203 142.01 44.1983 142.002 44.3768C142.002 44.818 141.838 45.244 141.541 45.575C141.353 45.7737 141.121 45.9289 140.865 46.0295C140.608 46.1301 140.331 46.1737 140.055 46.157C139.646 46.1801 139.242 46.0625 138.912 45.8244C138.599 45.5763 138.362 45.2476 138.228 44.8748L139.242 44.4075C139.302 44.5904 139.398 44.7599 139.524 44.9064C139.598 44.9745 139.684 45.0276 139.778 45.0627C139.873 45.0978 139.973 45.1142 140.074 45.111C140.26 45.1188 140.441 45.0559 140.581 44.9355C140.691 44.8259 140.754 44.6799 140.76 44.5264C140.762 44.4531 140.748 44.3801 140.72 44.3121C140.692 44.2441 140.65 44.1826 140.596 44.1315C140.441 43.9909 140.259 43.8816 140.061 43.8097L139.601 43.6051C139.333 43.4964 139.087 43.3431 138.873 43.1519C138.749 43.0418 138.651 42.906 138.587 42.7543C138.523 42.6026 138.494 42.4388 138.502 42.2747C138.5 41.8576 138.659 41.4555 138.947 41.1496C139.117 40.9801 139.321 40.8479 139.546 40.7619C139.772 40.6759 140.013 40.638 140.255 40.6507C140.604 40.6366 140.948 40.7341 141.235 40.9284C141.488 41.0912 141.697 41.3118 141.845 41.5712L140.891 42.1699Z" stroke="black" stroke-width="0.107429" mask="url(#path-10-outside-1_339:55669)"/>
<path d="M148.184 44.8301C147.972 45.2147 147.666 45.5411 147.293 45.7797C146.821 46.0551 146.28 46.1921 145.732 46.1747C145.401 46.1931 145.07 46.1426 144.76 46.0267C144.45 45.9108 144.169 45.732 143.934 45.502C143.675 45.2355 143.473 44.9215 143.338 44.578C143.202 44.2344 143.137 43.868 143.146 43.4997C143.129 42.7019 143.433 41.9297 143.992 41.3511C144.224 41.1203 144.502 40.939 144.809 40.8183C145.116 40.6976 145.444 40.6401 145.774 40.6493C146.092 40.6413 146.408 40.6982 146.702 40.8165C146.996 40.9347 147.262 41.1116 147.483 41.3361C148.009 41.9509 148.275 42.7409 148.226 43.543V43.6893H144.407C144.435 44.0816 144.597 44.453 144.868 44.742C144.994 44.8607 145.143 44.9517 145.307 45.0091C145.471 45.0664 145.646 45.0888 145.819 45.0746C146.124 45.0884 146.423 44.9953 146.664 44.8119C146.864 44.6552 147.031 44.4617 147.155 44.2423L148.184 44.8301ZM146.966 42.6965C146.92 42.4268 146.784 42.1799 146.58 41.9947C146.337 41.7986 146.031 41.695 145.717 41.7031C145.404 41.7112 145.103 41.8304 144.872 42.0387C144.683 42.2245 144.55 42.457 144.485 42.7114H146.966V42.6965Z" stroke="black" stroke-width="0.107429" mask="url(#path-10-outside-1_339:55669)"/>
<path d="M151.04 40.7958V41.2631C151.188 41.0903 151.364 40.9423 151.56 40.8249C151.793 40.6997 152.056 40.6391 152.321 40.6494C152.661 40.6382 152.996 40.7249 153.287 40.8989L152.78 42.0098C152.591 41.8847 152.368 41.8184 152.141 41.8194C151.998 41.8091 151.855 41.83 151.721 41.8806C151.587 41.9312 151.467 42.0103 151.368 42.1121C151.104 42.4546 150.983 42.8831 151.03 43.3103V46.0144H149.792V40.7958H151.04Z" stroke="black" stroke-width="0.107429" mask="url(#path-10-outside-1_339:55669)"/>
<path d="M155.006 37.8429C155.217 37.8429 155.419 37.9253 155.568 38.072C155.717 38.2187 155.801 38.4176 155.801 38.625C155.801 38.8324 155.717 39.0313 155.568 39.178C155.419 39.3246 155.217 39.407 155.006 39.407C154.795 39.407 154.593 39.3246 154.444 39.178C154.295 39.0313 154.211 38.8324 154.211 38.625C154.211 38.4176 154.295 38.2187 154.444 38.072C154.593 37.9253 154.795 37.8429 155.006 37.8429ZM155.63 40.7948V46.0251H154.398V40.7948H155.63Z" stroke="black" stroke-width="0.107429" mask="url(#path-10-outside-1_339:55669)"/>
<path d="M162.837 43.4104C162.843 43.9636 162.681 44.5062 162.373 44.969C162.065 45.4319 161.624 45.7942 161.106 46.0099C160.588 46.2257 160.016 46.2851 159.464 46.1807C158.911 46.0763 158.403 45.8128 158.003 45.4236C157.603 45.0344 157.33 44.5371 157.218 43.9948C157.106 43.4526 157.161 42.8898 157.375 42.3781C157.589 41.8663 157.952 41.4286 158.419 41.1206C158.887 40.8125 159.437 40.6481 159.999 40.648C160.372 40.6379 160.743 40.7022 161.09 40.837C161.437 40.9719 161.753 41.1745 162.018 41.4326C162.283 41.6908 162.493 41.9991 162.633 42.339C162.774 42.679 162.843 43.0434 162.837 43.4104ZM161.574 43.4253C161.552 43.1235 161.441 42.8346 161.255 42.5939C161.069 42.3532 160.815 42.1713 160.525 42.0705C160.235 41.9697 159.921 41.9545 159.623 42.0265C159.324 42.0986 159.053 42.255 158.843 42.4764C158.634 42.6977 158.494 42.9745 158.442 43.2727C158.39 43.5709 158.428 43.8776 158.551 44.155C158.674 44.4324 158.876 44.6685 159.133 44.8343C159.391 45.0001 159.692 45.0884 159.999 45.0884C160.217 45.0942 160.435 45.0543 160.636 44.9713C160.837 44.8884 161.019 44.7642 161.168 44.6071C161.316 44.45 161.43 44.2635 161.5 44.06C161.57 43.8566 161.595 43.6408 161.574 43.427V43.4253Z" stroke="black" stroke-width="0.107429" mask="url(#path-10-outside-1_339:55669)"/>
<path d="M165.599 40.7955V43.789C165.57 44.1208 165.648 44.4531 165.822 44.7386C165.92 44.854 166.043 44.9466 166.181 45.0097C166.32 45.0728 166.471 45.1049 166.624 45.1036C166.778 45.1097 166.931 45.0798 167.07 45.0164C167.21 44.9529 167.332 44.8577 167.426 44.7386C167.602 44.4538 167.681 44.1209 167.65 43.789V40.7955H168.883V43.8206C168.918 44.1287 168.885 44.4405 168.788 44.7353C168.691 45.0301 168.53 45.3011 168.318 45.5302C167.851 45.9578 167.232 46.1885 166.595 46.173C166.285 46.1799 165.978 46.1267 165.69 46.0164C165.402 45.9061 165.139 45.7409 164.916 45.5302C164.703 45.3011 164.543 45.0301 164.446 44.7353C164.348 44.4405 164.316 44.1287 164.351 43.8206V40.7955H165.599Z" stroke="black" stroke-width="0.107429" mask="url(#path-10-outside-1_339:55669)"/>
<path d="M172.983 42.1699C172.907 42.036 172.797 41.9239 172.663 41.8444C172.53 41.765 172.378 41.721 172.222 41.7167C172.154 41.7131 172.087 41.7229 172.023 41.7455C171.959 41.768 171.901 41.8029 171.851 41.8481C171.776 41.9223 171.734 42.0217 171.732 42.1258C171.73 42.1862 171.747 42.2456 171.778 42.2974C171.81 42.3491 171.855 42.3911 171.91 42.4185C171.984 42.4626 172.059 42.4917 172.326 42.6231L172.965 42.9299C173.239 43.0472 173.491 43.2104 173.708 43.4122C173.838 43.5374 173.939 43.6879 174.005 43.8541C174.072 44.0203 174.102 44.1983 174.094 44.3768C174.094 44.818 173.93 45.244 173.634 45.575C173.445 45.7737 173.214 45.9289 172.957 46.0295C172.7 46.1301 172.424 46.1737 172.148 46.157C171.739 46.1801 171.334 46.0625 171.004 45.8244C170.691 45.5763 170.454 45.2476 170.32 44.8748L171.334 44.4075C171.394 44.5904 171.49 44.7599 171.617 44.9064C171.69 44.9745 171.776 45.0276 171.871 45.0627C171.965 45.0978 172.065 45.1142 172.166 45.111C172.352 45.1188 172.533 45.0559 172.673 44.9355C172.783 44.8259 172.846 44.6799 172.852 44.5264C172.854 44.4531 172.84 44.3801 172.812 44.3121C172.784 44.2441 172.742 44.1826 172.689 44.1315C172.533 43.9909 172.351 43.8816 172.153 43.8097L171.693 43.6051C171.425 43.4964 171.179 43.343 170.965 43.1519C170.841 43.0418 170.743 42.906 170.679 42.7543C170.615 42.6026 170.586 42.4388 170.594 42.2747C170.592 41.8576 170.751 41.4555 171.039 41.1496C171.209 40.9801 171.413 40.8479 171.639 40.7619C171.864 40.6759 172.106 40.638 172.347 40.6507C172.696 40.6366 173.04 40.7341 173.328 40.9284C173.58 41.0912 173.79 41.3117 173.937 41.5712L172.983 42.1699Z" stroke="black" stroke-width="0.107429" mask="url(#path-10-outside-1_339:55669)"/>
<path d="M176.788 37.7403H175.555V46.0273H176.788V37.7403Z" stroke="black" stroke-width="0.107429" mask="url(#path-10-outside-1_339:55669)"/>
<path d="M178.751 47.9574H180.133L183.892 40.7955H182.495L180.965 43.8505L179.45 40.7955H177.963L180.221 45.1951L178.751 47.9574Z" stroke="black" stroke-width="0.107429" mask="url(#path-10-outside-1_339:55669)"/>
</g>
</g>
</svg>
